<svg version="1.1" viewBox="0.0 0.0 960.0 540.0" fill="none" stroke="none"
     stroke-linecap="square" stroke-miterlimit="10"
     xmlns:xlink="http://www.w3.org/1999/xlink" xmlns="http://www.w3.org/2000/svg">
    <clipPath id="g214d589af1d_0_0.0">
        <path d="m0 0l960.0 0l0 540.0l-960.0 0l0 -540.0z" clip-rule="nonzero"/>
    </clipPath>
    <g clip-path="url(#g214d589af1d_0_0.0)">
        <path fill="#613915"
              d="m30.95013 134.29533l0 0c0 -9.017059 7.3097687 -16.326828 16.326824 -16.326828l882.4959 0c4.330139 0 8.482971 1.7201385 11.544861 4.782013c3.0618286 3.0618744 4.7819824 7.2146606 4.7819824 11.544815l0 245.86604c0 9.017029 -7.3097534 16.326813 -16.326843 16.326813l-882.4959 0c-9.0170555 0 -16.326824 -7.309784 -16.326824 -16.326813z"
              fill-rule="evenodd"/>
        <path stroke="#000000" stroke-width="12.0" stroke-linejoin="round"
              stroke-linecap="butt"
              d="m30.95013 134.29533l0 0c0 -9.017059 7.3097687 -16.326828 16.326824 -16.326828l882.4959 0c4.330139 0 8.482971 1.7201385 11.544861 4.782013c3.0618286 3.0618744 4.7819824 7.2146606 4.7819824 11.544815l0 245.86604c0 9.017029 -7.3097534 16.326813 -16.326843 16.326813l-882.4959 0c-9.0170555 0 -16.326824 -7.309784 -16.326824 -16.326813z"
              fill-rule="evenodd"/>
        <path fill="#000000" fill-opacity="0.0" d="m0 0l960.0 0l0 540.0l-960.0 0z"
              fill-rule="evenodd"/>
        <path fill="#e40303"
              d="m232.58563 182.8919q5.75 1.125 8.609375 3.90625q2.875 2.765625 2.875 6.484375q0 6.109375 -3.421875 8.890625q-3.421875 2.78125 -10.84375 2.21875q-16.671875 -1.296875 -26.03125 -1.75q-9.359375 -0.46875 -24.5625 -0.65625q-6.859375 34.09375 -12.59375 68.578125q-2.046875 12.59375 -4.28125 29.1875q-2.21875 16.578125 -2.953125 26.78125q-0.375 5.375 -4.453125 8.25q-4.078125 2.859375 -9.8125 2.859375q-6.125 0 -9.46875 -2.953125q-3.328125 -2.96875 -3.328125 -7.796875q0 -4.4375 1.390625 -14.71875q1.390625 -10.296875 3.25 -21.59375q2.03125 -11.3125 3.140625 -19.65625q2.046875 -14.078125 4.640625 -27.96875q2.59375 -13.90625 5.1875 -26.328125q0.5625 -2.78125 1.296875 -6.390625q0.75 -3.609375 1.671875 -8.0625q-18.171875 0.5625 -28.546875 2.96875q-10.375 2.40625 -14.734375 6.765625q-4.34375 4.34375 -4.34375 11.203125q0 6.296875 3.703125 12.046875q0.734375 1.296875 0.734375 2.78125q0 3.515625 -4.171875 6.578125q-4.15625 3.0625 -8.609375 3.0625q-3.15625 0 -5.1875 -1.859375q-3.703125 -3.140625 -6.125 -8.984375q-2.40625 -5.84375 -2.40625 -13.25q0 -15.75 10.28125 -25.296875q10.296875 -9.546875 31.328125 -13.984375q21.03125 -4.453125 54.015625 -4.453125q20.390625 0 32.53125 0.75q12.140625 0.734375 21.21875 2.390625z"
              fill-rule="nonzero"/>
        <path fill="#ff8c00"
              d="m234.07175 337.6419q-8.71875 0 -14.0 -7.125q-5.28125 -7.140625 -5.28125 -19.75q0 -13.890625 1.859375 -25.46875q1.859375 -11.59375 6.109375 -24.5625q1.859375 -5.5625 5.1875 -7.96875q3.34375 -2.40625 10.578125 -2.40625q4.0625 0 5.640625 1.296875q1.578125 1.296875 1.578125 3.890625q0 1.484375 -2.03125 10.0q-1.859375 6.859375 -2.96875 12.421875q-3.703125 19.453125 -3.703125 25.953125q0 3.890625 0.921875 5.46875q0.921875 1.5625 2.96875 1.5625q2.78125 0 7.03125 -5.640625q4.265625 -5.65625 8.984375 -17.046875q4.734375 -11.40625 9.0 -27.53125q1.484375 -5.5625 4.53125 -7.96875q3.0625 -2.40625 9.1875 -2.40625q4.078125 0 5.828125 2.140625q1.765625 2.125 1.765625 6.375q0 4.640625 -0.75 10.296875q-0.734375 5.640625 -1.65625 11.578125q-1.859375 11.859375 -2.96875 21.59375q-1.109375 9.71875 -1.109375 22.140625q0 7.046875 -2.875 10.109375q-2.875 3.046875 -9.359375 3.046875q-6.859375 0 -9.546875 -3.609375q-2.6875 -3.609375 -2.6875 -13.984375q0 -2.046875 0.375 -9.09375q-3.15625 12.984375 -9.359375 19.84375q-6.203125 6.84375 -13.25 6.84375z"
              fill-rule="nonzero"/>
        <path fill="#ffed00"
              d="m374.91638 275.75128q4.078125 0 6.953125 2.875q2.875 2.859375 2.875 7.125q0 2.40625 -1.109375 5.1875q-2.96875 6.859375 -8.34375 11.5q-5.375 4.625 -11.859375 4.625q-5.1875 0 -8.8125 -3.703125q-3.609375 -3.703125 -3.609375 -10.0q0 -3.53125 0.375 -7.609375q0.375 -2.96875 0.375 -4.078125q0 -1.484375 -0.65625 -2.21875q-0.640625 -0.734375 -1.578125 -0.734375q-2.59375 0 -7.046875 6.203125q-4.4375 6.203125 -8.890625 16.40625q-4.4375 10.1875 -7.21875 21.484375q-2.046875 8.90625 -4.640625 11.875q-2.59375 2.953125 -8.53125 2.953125q-7.03125 0 -9.90625 -7.40625q-2.875 -7.421875 -2.875 -23.71875q0 -24.09375 6.859375 -45.78125q1.671875 -5.375 5.46875 -7.875q3.796875 -2.5 10.65625 -2.5q3.703125 0 5.1875 0.921875q1.484375 0.921875 1.484375 3.515625q0 2.96875 -2.78125 13.34375q-1.859375 7.421875 -2.96875 12.984375q-1.109375 5.5625 -1.84375 13.703125q6.109375 -15.9375 13.703125 -25.9375q7.609375 -10.015625 14.828125 -14.265625q7.234375 -4.265625 13.15625 -4.265625q5.375 0 8.25 3.0625q2.875 3.046875 2.875 8.984375q0 3.515625 -2.046875 13.34375l1.671875 0z"
              fill-rule="nonzero"/>
        <path fill="#008026"
              d="m422.35687 267.97003q-0.359375 9.265625 -0.359375 14.453125q0 13.34375 1.390625 20.84375q1.390625 7.5 4.625 10.75q3.25 3.25 8.984375 3.25q2.96875 0 7.046875 -1.859375q4.078125 -1.859375 7.421875 -4.8125q2.03125 -1.859375 4.078125 -1.859375q2.21875 0 3.609375 2.5q1.390625 2.5 1.390625 6.03125q0 3.515625 -1.390625 6.859375q-1.390625 3.328125 -4.171875 5.546875q-9.640625 7.96875 -21.875 7.96875q-17.59375 0 -25.75 -14.734375q-8.15625 -14.734375 -8.15625 -38.453125q0 -8.15625 0.546875 -16.484375l-7.21875 0q-5.5625 0 -7.515625 -2.03125q-1.9375 -2.046875 -1.9375 -6.5q0 -10.375 8.34375 -10.375l10.5625 0q3.140625 -20.390625 9.625 -37.25q6.5 -16.875 15.671875 -26.875q9.171875 -10.015625 19.734375 -10.015625q7.78125 0 12.21875 6.859375q4.453125 6.859375 4.453125 17.234375q0 28.734375 -24.09375 50.046875l20.765625 0q2.96875 0 4.265625 1.296875q1.296875 1.296875 1.296875 4.8125q0 12.796875 -20.953125 12.796875l-22.609375 0zm19.65625 -75.25q-2.78125 0 -6.21875 6.953125q-3.421875 6.953125 -6.484375 19.28125q-3.0625 12.3125 -5.09375 27.328125q10.9375 -9.453125 16.40625 -21.21875q5.46875 -11.765625 5.46875 -21.40625q0 -10.9375 -4.078125 -10.9375z"
              fill-rule="nonzero"/>
        <path fill="#24408e"
              d="m521.8817 310.59503q2.046875 -1.859375 4.078125 -1.859375q2.21875 0 3.609375 2.5q1.390625 2.5 1.390625 6.03125q0 7.78125 -5.546875 12.40625q-9.640625 7.96875 -21.875 7.96875q-17.609375 0 -25.765625 -14.734375q-8.15625 -14.734375 -8.15625 -38.453125q0 -22.609375 5.84375 -51.515625q5.84375 -28.90625 17.234375 -49.65625q11.390625 -20.765625 27.15625 -20.765625q8.890625 0 13.984375 8.25q5.09375 8.234375 5.09375 23.625q0 22.046875 -12.140625 51.15625q-12.125 29.09375 -33.078125 57.4375q1.296875 7.609375 4.625 10.953125q3.34375 3.328125 9.09375 3.328125q3.15625 0 7.140625 -1.859375q3.984375 -1.859375 7.3125 -4.8125zm-6.109375 -129.73438q-4.265625 0 -9.640625 15.390625q-5.375 15.375 -9.453125 38.171875q-4.078125 22.796875 -4.453125 43.734375q13.171875 -21.6875 20.953125 -43.453125q7.78125 -21.78125 7.78125 -39.765625q0 -14.078125 -5.1875 -14.078125z"
              fill-rule="nonzero"/>
        <path fill="#732982"
              d="m602.8793 300.9544q2.40625 0 3.796875 2.21875q1.390625 2.21875 1.390625 6.125q0 6.671875 -3.15625 11.484375q-5.1875 7.96875 -13.625 12.421875q-8.421875 4.4375 -20.109375 4.4375q-17.78125 0 -27.609375 -10.65625q-9.828125 -10.65625 -9.828125 -28.8125q0 -12.78125 5.375 -23.8125q5.375 -11.03125 14.921875 -17.515625q9.546875 -6.484375 21.59375 -6.484375q10.75 0 17.234375 6.390625q6.484375 6.390625 6.484375 17.328125q0 12.78125 -9.171875 21.96875q-9.171875 9.171875 -31.21875 14.546875q4.4375 8.515625 15.0 8.515625q7.609375 0 12.515625 -3.515625q4.90625 -3.53125 11.390625 -11.859375q2.234375 -2.78125 5.015625 -2.78125zm-30.40625 -32.4375q-6.84375 0 -11.578125 7.96875q-4.71875 7.96875 -4.71875 19.28125l0 0.359375q10.921875 -2.59375 17.21875 -7.78125q6.3125 -5.1875 6.3125 -12.046875q0 -3.515625 -1.953125 -5.640625q-1.9375 -2.140625 -5.28125 -2.140625z"
              fill-rule="nonzero"/>
        <path fill="#ffffff"
              d="m664.4085 338.2044q-24.65625 0 -39.484375 -9.359375q-14.828125 -9.359375 -14.828125 -28.640625q0 -10.1875 3.515625 -15.5625q3.53125 -5.375 10.390625 -5.375q5.0 0 8.140625 2.59375q3.15625 2.59375 3.15625 6.671875q0 3.703125 -0.546875 6.484375q0 0.75 -0.28125 2.609375q-0.28125 1.84375 -0.28125 3.875q0 8.34375 8.4375 12.421875q8.4375 4.078125 23.625 4.078125q15.75 0 24.640625 -5.640625q8.90625 -5.65625 8.90625 -15.859375q0 -6.296875 -4.078125 -10.828125q-4.078125 -4.546875 -10.203125 -7.609375q-6.109375 -3.0625 -17.21875 -7.5q-14.28125 -5.5625 -23.265625 -10.5625q-8.984375 -5.015625 -15.390625 -13.625q-6.390625 -8.625 -6.390625 -21.40625q0 -13.34375 7.140625 -23.71875q7.140625 -10.390625 20.578125 -16.125q13.4375 -5.75 31.59375 -5.75q13.53125 0 24.828125 3.984375q11.3125 3.984375 18.078125 12.140625q6.765625 8.15625 6.765625 20.015625q0 11.671875 -3.53125 17.609375q-3.515625 5.921875 -10.375 5.921875q-4.8125 0 -8.0625 -2.953125q-3.234375 -2.96875 -3.234375 -7.046875q0 -3.53125 0.546875 -6.484375q0.5625 -5.5625 0.5625 -7.046875q0 -7.78125 -7.609375 -11.859375q-7.59375 -4.078125 -18.890625 -4.078125q-15.9375 0 -24.375 5.84375q-8.4375 5.828125 -8.4375 16.390625q0 7.046875 4.359375 12.046875q4.359375 5.0 10.84375 8.34375q6.484375 3.328125 18.15625 7.96875q14.09375 5.75 22.609375 10.390625q8.53125 4.625 14.546875 12.59375q6.03125 7.96875 6.03125 19.640625q0 21.875 -16.59375 33.640625q-16.578125 11.765625 -44.375 11.765625z"
              fill-rule="nonzero"/>
        <path fill="#ffafc8"
              d="m807.48145 300.9544q2.40625 0 3.796875 2.21875q1.390625 2.21875 1.390625 6.125q0 6.671875 -3.15625 11.484375q-5.1875 7.96875 -13.625 12.421875q-8.421875 4.4375 -20.109375 4.4375q-17.78125 0 -27.609375 -10.65625q-9.828125 -10.65625 -9.828125 -28.8125q0 -12.78125 5.375 -23.8125q5.375 -11.03125 14.921875 -17.515625q9.546875 -6.484375 21.59375 -6.484375q10.75 0 17.234375 6.390625q6.484375 6.390625 6.484375 17.328125q0 12.78125 -9.171875 21.96875q-9.171875 9.171875 -31.21875 14.546875q4.4375 8.515625 15.0 8.515625q7.609375 0 12.515625 -3.515625q4.90625 -3.53125 11.390625 -11.859375q2.234375 -2.78125 5.015625 -2.78125zm-30.40625 -32.4375q-6.84375 0 -11.578125 7.96875q-4.71875 7.96875 -4.71875 19.28125l0 0.359375q10.921875 -2.59375 17.21875 -7.78125q6.3125 -5.1875 6.3125 -12.046875q0 -3.515625 -1.953125 -5.640625q-1.9375 -2.140625 -5.28125 -2.140625z"
              fill-rule="nonzero"/>
        <path fill="#74d7ee"
              d="m851.7606 337.6419q-17.59375 0 -27.515625 -10.28125q-9.90625 -10.28125 -9.90625 -27.15625q0 -15.0 5.921875 -26.296875q5.9375 -11.3125 15.375 -17.421875q9.453125 -6.125 19.84375 -6.125q10.1875 0 15.84375 6.03125q5.65625 6.015625 5.65625 15.46875q0 7.78125 -3.4375 13.15625q-3.421875 5.375 -8.984375 5.375q-3.515625 0 -5.65625 -1.671875q-2.125 -1.671875 -2.125 -4.640625q0 -1.296875 0.359375 -2.953125q0.375 -1.671875 0.5625 -2.40625q0.921875 -2.78125 0.921875 -5.203125q0 -2.40625 -1.203125 -3.703125q-1.203125 -1.296875 -3.421875 -1.296875q-4.265625 0 -7.96875 3.796875q-3.703125 3.796875 -5.9375 10.296875q-2.21875 6.484375 -2.21875 14.265625q0 10.5625 4.34375 16.03125q4.359375 5.46875 12.328125 5.46875q6.3125 0 11.59375 -3.703125q5.28125 -3.71875 10.46875 -10.9375q2.21875 -2.78125 5.0 -2.78125q2.40625 0 3.796875 2.21875q1.390625 2.21875 1.390625 6.125q0 6.671875 -3.140625 11.484375q-5.015625 7.78125 -13.171875 12.328125q-8.140625 4.53125 -18.71875 4.53125z"
              fill-rule="nonzero"/>
    </g>
</svg>