<svg version="1.1" viewBox="0.0 0.0 960.0 540.0" fill="none" stroke="none" stroke-linecap="square" stroke-miterlimit="10" xmlns:xlink="http://www.w3.org/1999/xlink" xmlns="http://www.w3.org/2000/svg">
<clipPath id="p.0">
<path d="m0 0l960.0 0l0 540.0l-960.0 0l0 -540.0z" clip-rule="nonzero"/>
</clipPath>

<g clip-path="url(#p.0)">
<!-- background -->
<path fill="#0C938F" d="m0 0l960.0 0l0 540.0l-960.0 0z" fill-rule="evenodd"/>

<!-- background foot fill -->
<path fill="#38A6A3" d="m145.68242 403.6299l0 0c0 -17.473053 27.842957 -31.637787 62.188965 -31.637787l0 0c34.346024 0 62.18898 14.164734 62.18898 31.637787l0 0c0 17.473083 -27.842957 31.637817 -62.18898 31.637817l0 0c-34.34601 0 -62.188965 -14.164734 -62.188965 -31.637817z" fill-rule="evenodd"/>
<!-- background foot stroke -->
<path stroke="#080603" stroke-width="2.0" stroke-linejoin="round" stroke-linecap="butt" d="m145.68242 403.6299l0 0c0 -17.473053 27.842957 -31.637787 62.188965 -31.637787l0 0c34.346024 0 62.18898 14.164734 62.18898 31.637787l0 0c0 17.473083 -27.842957 31.637817 -62.18898 31.637817l0 0c-34.34601 0 -62.188965 -14.164734 -62.188965 -31.637817z" fill-rule="evenodd"/>

<!-- foreground foot fill  -->
<path fill="#7AC4C1" d="m109.98163 377.24933l0 0c0 -20.30841 32.630325 -36.771637 72.88188 -36.771637l0 0c40.251556 0 72.8819 16.463226 72.8819 36.771637l0 0c0 20.308441 -32.63034 36.771667 -72.8819 36.771667l0 0c-40.251556 0 -72.88188 -16.463226 -72.88188 -36.771667z" fill-rule="evenodd"/>
<!-- foreground foot stroke -->
<path stroke="#080603" stroke-width="2.0" stroke-linejoin="round" stroke-linecap="butt" d="m109.98163 377.24933l0 0c0 -20.30841 32.630325 -36.771637 72.88188 -36.771637l0 0c40.251556 0 72.8819 16.463226 72.8819 36.771637l0 0c0 20.308441 -32.63034 36.771667 -72.8819 36.771667l0 0c-40.251556 0 -72.88188 -16.463226 -72.88188 -36.771667z" fill-rule="evenodd"/>

<!-- head fill -->
<path fill="#7AC4C1" d="m593.9869 229.56693l0 0c0 -20.308426 32.63031 -36.771652 72.8819 -36.771652l0 0c40.251526 0 72.8819 16.463226 72.8819 36.771652l0 0c0 20.308426 -32.63037 36.771667 -72.8819 36.771667l0 0c-40.251587 0 -72.8819 -16.463242 -72.8819 -36.771667z" fill-rule="evenodd" transform="rotate(-7.45814 666.869 229.567)"/>
<!-- head stroke -->
<path stroke="#080603" stroke-width="2.0" stroke-linejoin="round" stroke-linecap="butt" d="m593.9869 229.56693l0 0c0 -20.308426 32.63031 -36.771652 72.8819 -36.771652l0 0c40.251526 0 72.8819 16.463226 72.8819 36.771652l0 0c0 20.308426 -32.63037 36.771667 -72.8819 36.771667l0 0c-40.251587 0 -72.8819 -16.463242 -72.8819 -36.771667z" fill-rule="evenodd" transform="rotate(-7.45814 666.869 229.567)"/>

<!-- shell fill -->
<path fill="#38A6A3" d="m266.18054 350.5321l0 0c-7.5838623 -19.81897 14.8098755 -48.922913 58.7182 -76.31296c43.908356 -27.390015 102.634705 -48.88881 153.98544 -56.371613c51.35074 -7.4828033 87.49417 0.19160461 94.77115 20.12294z" fill-rule="evenodd"/>
<!-- shell stroke -->
<path stroke="#080603" stroke-width="2.0" stroke-linejoin="round" stroke-linecap="butt" d="m266.18054 350.5321l0 0c-7.5838623 -19.81897 14.8098755 -48.922913 58.7182 -76.31296c43.908356 -27.390015 102.634705 -48.88881 153.98544 -56.371613c51.35074 -7.4828033 87.49417 0.19160461 94.77115 20.12294z" fill-rule="evenodd"/>

<!-- belly fill -->
<path fill="#E5D783" d="m580.5626 296.6075l0 0c8.043701 21.631897 -38.537537 58.042908 -106.231476 83.03772c-67.69394 24.994812 -133.02902 29.906921 -149.00089 11.202393z" fill-rule="evenodd"/>
<!-- belly stroke -->
<path stroke="#080603" stroke-width="2.0" stroke-linejoin="round" stroke-linecap="butt" d="m580.5626 296.6075l0 0c8.043701 21.631897 -38.537537 58.042908 -106.231476 83.03772c-67.69394 24.994812 -133.02902 29.906921 -149.00089 11.202393z" fill-rule="evenodd"/>

<!-- flipper fill -->
<path fill="#7AC4C1" d="m306.56354 138.72183l0 0c14.020203 -25.405098 80.98007 -15.322693 149.55905 22.519684l0 0c68.57901 37.842377 112.80759 89.11459 98.787384 114.519684l0 0c-14.020203 25.40509 -80.98007 15.322693 -149.55905 -22.519684l0 0c-68.57898 -37.842377 -112.80759 -89.11458 -98.787384 -114.519684z" fill-rule="evenodd"/>
<!-- flipper stroke -->
<path stroke="#080603" stroke-width="2.0" stroke-linejoin="round" stroke-linecap="butt" d="m306.56354 138.72183l0 0c14.020203 -25.405098 80.98007 -15.322693 149.55905 22.519684l0 0c68.57901 37.842377 112.80759 89.11459 98.787384 114.519684l0 0c-14.020203 25.40509 -80.98007 15.322693 -149.55905 -22.519684l0 0c-68.57898 -37.842377 -112.80759 -89.11458 -98.787384 -114.519684z" fill-rule="evenodd"/>
</g>
</svg>
